<svg xmlns="http://www.w3.org/2000/svg" xmlns:xlink="http://www.w3.org/1999/xlink" width="128" height="128" viewBox="0 0 128 128">
  <defs>
    <clipPath id="clip-React_icon_white">
      <rect width="128" height="128"/>
    </clipPath>
  </defs>
  <g id="React_icon_white" clip-path="url(#clip-React_icon_white)">
    <g id="Group_3861" data-name="Group 3861">
      <g id="Group_3857" data-name="Group 3857">
        <rect id="Rectangle_569" data-name="Rectangle 569" width="128" height="128" fill="none"/>
      </g>
      <g id="Group_3859" data-name="Group 3859" transform="translate(420.894 -552.068)">
        <g id="Group_3860" data-name="Group 3860">
          <path id="Path_1941" data-name="Path 1941" d="M-293.494,616.485c0-9.068-10.172-16.943-26.048-21.753.524-2.29.949-4.531,1.253-6.7,1.856-13.208-.688-22.54-7.163-26.278-7.8-4.5-19.586.265-31.6,11.433-12.013-11.169-23.8-15.936-31.6-11.434s-9.57,17.149-5.874,33.183c-15.489,4.828-25.368,12.61-25.368,21.55s9.879,16.723,25.368,21.55c-3.7,16.035-1.939,28.673,5.874,33.184a13.146,13.146,0,0,0,6.674,1.7c5.61,0,12.358-2.931,19.665-8.638,1.751-1.368,3.5-2.878,5.25-4.5,8.978,8.35,17.833,13.122,24.99,13.122a13.051,13.051,0,0,0,6.621-1.684c6.475-3.739,9.019-13.071,7.163-26.279-.3-2.17-.729-4.411-1.253-6.7C-303.666,633.428-293.494,625.554-293.494,616.485Zm-33.958-51.267c4.9,2.826,6.792,10.938,5.2,22.257-.281,2-.672,4.064-1.148,6.173a122.671,122.671,0,0,0-18.672-3.2A121.741,121.741,0,0,0-354.155,576C-343.654,566.221-333.583,561.674-327.452,565.218Zm-9.914,62.634c-2.184,3.783-4.5,7.4-6.893,10.831-4.024.345-8.184.533-12.435.533-4.514,0-8.923-.213-13.179-.6-2.377-3.39-4.682-6.985-6.864-10.764s-4.156-7.6-5.908-11.365c1.752-3.766,3.719-7.574,5.908-11.366s4.488-7.375,6.865-10.765c4.255-.388,8.665-.6,13.178-.6,4.244,0,8.4.187,12.415.531,2.394,3.411,4.716,7.029,6.913,10.835,2.181,3.777,4.157,7.583,5.925,11.366C-333.209,620.269-335.185,624.074-337.366,627.852Zm8.057-6.572a114.22,114.22,0,0,1,4.932,14.121,118.019,118.019,0,0,1-14.668,2.737q2.663-4,5.144-8.286Q-331.436,625.583-329.309,621.28Zm-27.726,32.9a117.452,117.452,0,0,1-9.718-11.289q4.9.32,10.059.326,4.773,0,9.342-.281A114.445,114.445,0,0,1-357.035,654.179Zm-18.1-16.146a116.556,116.556,0,0,1-14.525-2.8,117.554,117.554,0,0,1,4.872-13.919q2.107,4.239,4.581,8.533Q-377.741,634.111-375.13,638.033Zm-9.653-26.38a117.582,117.582,0,0,1-4.873-13.92,116.667,116.667,0,0,1,14.521-2.8q-2.6,3.921-5.067,8.183Q-382.676,607.405-384.783,611.653Zm27.733-32.843a117.46,117.46,0,0,1,9.664,11.223q-4.548-.272-9.308-.279-5.146,0-10.057.325A117.4,117.4,0,0,1-357.05,578.81Zm23.149,24.31q-2.49-4.314-5.134-8.287a118.122,118.122,0,0,1,14.659,2.736,114.32,114.32,0,0,1-4.933,14.123Q-331.437,607.4-333.9,603.12Zm-52.751-37.9c6.134-3.544,16.2,1,26.706,10.781a121.7,121.7,0,0,0-12.139,14.528,120.768,120.768,0,0,0-18.561,3.3C-393.889,579.8-392.8,568.767-386.652,565.217Zm-29.242,51.268c0-7.027,8.827-13.429,22.359-17.636a121.782,121.782,0,0,0,6.467,17.637,121.8,121.8,0,0,0-6.467,17.636C-407.067,629.915-415.894,623.513-415.894,616.485Zm51.118,44.646c-9.007,7.037-16.981,9.452-21.876,6.623-6.148-3.55-7.237-14.583-3.994-28.609a120.774,120.774,0,0,0,18.558,3.3,121.655,121.655,0,0,0,12.154,14.544C-361.546,658.479-363.162,659.87-364.776,661.131Zm42.527-15.634c1.589,11.318-.307,19.431-5.2,22.257-6.136,3.543-16.211-1.007-26.715-10.792a122.3,122.3,0,0,0,12.1-14.445,122.65,122.65,0,0,0,18.672-3.2C-322.921,641.432-322.53,643.5-322.249,645.5Zm1.721-11.171a122.17,122.17,0,0,0-6.508-17.84,122.318,122.318,0,0,0,6.509-17.842c13.911,4.2,23.033,10.7,23.033,17.841S-306.616,630.124-320.528,634.326Z" fill="#fff"/>
          <circle id="Ellipse_8" data-name="Ellipse 8" cx="10.708" cy="10.708" r="10.708" transform="translate(-367.402 605.777)" fill="#fff"/>
        </g>
      </g>
      <rect id="Rectangle_570" data-name="Rectangle 570" width="128" height="128" fill="none"/>
    </g>
  </g>
</svg>
